<?xml version="1.0" encoding="utf-8"?>
<!DOCTYPE svg PUBLIC "-//W3C//DTD SVG 1.0//EN" "http://www.w3.org/TR/2001/REC-SVG-20010904/DTD/svg10.dtd">
<svg version="1.0" xmlns="http://www.w3.org/2000/svg" width="1500px" height="600px" viewBox="0 0 1500 600" preserveAspectRatio="xMidYMid meet">
 <g fill="#808080">
  <path d="M337 347 c0 -112.8 0.3 -145 1.2 -144.4 0.7 0.4 4.6 3.5 8.8 6.9 4.1 3.3 11.2 8.7 15.8 11.9 l8.2 6 0 101.3 0 101.3 3.3 0 c2.5 0 4.9 -1.3 10.3 -5.6 37.8 -30.8 62.1 -72 72.3 -123 3.1 -15.4 6.1 -39.3 6.1 -48.7 0 -5.2 -0.1 -5.3 -3.7 -6.6 -9.2 -3.3 -31.6 -14.1 -45.4 -21.7 -26.1 -14.5 -50.5 -31.9 -68.4 -48.6 l-8.5 -8 0 -25.5 0 -25.6 5.2 7.4 c6.6 9.5 26.5 29.3 39.3 39 33.3 25.4 76 47.9 107.2 56.7 l9.3 2.6 0 4.1 c0 9.1 -2.1 38.8 -3.6 50.5 -6.9 56 -25.3 101.1 -56.2 138 -23.4 28 -59 55.4 -97.9 75.4 l-3.3 1.7 0 -145.1z"/>
  <path d="M926 413.5 l0 -60.5 8 0 8 0 0 4.1 0 4.1 4.1 -3.6 c9 -7.7 22.2 -6.4 27.8 2.8 4.5 7.4 5.5 13.8 5.6 36.6 0 23.3 -0.8 28.9 -5.3 37.3 -3 5.7 -6.3 8.3 -12.1 9.6 -5.4 1.2 -10.4 0 -15.8 -3.8 l-4.3 -3.1 0 18.5 0 18.5 -8 0 -8 0 0 -60.5z m34.2 15.5 c3 -4.1 4.1 -14.7 3.6 -35.5 -0.5 -20.4 -1.5 -25.2 -5.9 -27.5 -2.8 -1.5 -10.1 -0.8 -13.4 1.4 l-2.5 1.6 0 29.8 0 29.8 3.3 1.7 c1.9 1 5.2 1.5 8.1 1.4 3.9 -0.2 5.3 -0.7 6.8 -2.7z"/>
  <path d="M819.5 445 c-13.9 -2.2 -21.8 -9.9 -25 -24.5 -1.4 -6.1 -1.6 -12.9 -1.3 -43.1 0.3 -35 0.4 -36.1 2.7 -41.8 5.2 -13 14.5 -18.7 30.4 -18.7 11.3 0 17.7 2 23.2 7.6 5.8 5.7 7.6 11.5 8.2 25.8 l0.5 11.7 -8 0 -8 0 -0.4 -12.2 c-0.4 -13.7 -1.4 -16.6 -7.1 -18.9 -4 -1.7 -12.3 -1.7 -16.5 0 -1.8 0.7 -4.2 3 -5.4 5 -2.3 3.6 -2.3 4.1 -2.6 42.3 -0.3 41.9 0 44.7 4.8 50.1 2.6 3 3.3 3.2 10.7 3.5 7.4 0.4 8.1 0.2 11.1 -2.3 4.1 -3.4 5.2 -7.7 5.2 -20.7 l0 -10.8 8.1 0 8.1 0 -0.4 12.3 c-0.6 14.4 -2.7 21.3 -8.5 26.9 -6.9 6.7 -18.1 9.6 -29.8 7.8z"/>
  <path d="M877.7 443.5 c-8.1 -2.8 -12.6 -10 -12.7 -20.1 0 -14 6.3 -22.3 23.3 -30.5 5.6 -2.7 10.8 -4.9 11.5 -4.9 0.8 0 1.2 -1.8 1.2 -5.7 -0.1 -12.9 -2.8 -18.3 -9.2 -18.3 -6.9 0 -10.8 4.7 -10.8 13.1 l0 3.9 -7.8 0 -7.8 0 0.7 -5.9 c1.8 -15.4 10 -22.3 26.2 -22.3 15.5 0.1 21.8 6.1 23.7 22.5 0.5 4.5 1.1 21.8 1.2 38.5 l0.3 30.3 -7 -0.3 -7 -0.3 -1 -7 -1.1 -7 -1.8 3.5 c-4.9 9.4 -13.5 13.5 -21.9 10.5z m15.6 -13.6 c1.2 -0.6 3.4 -2.3 5 -3.7 2.7 -2.6 2.7 -2.7 2.7 -15.9 0 -7.3 -0.3 -13.3 -0.6 -13.3 -1.5 0 -12.1 7.1 -14.5 9.7 -3.9 4.2 -4.9 6.6 -4.9 12.3 0 9.9 5.2 14.5 12.3 10.9z"/>
  <path d="M1066.7 443.5 c-8.1 -2.8 -12.6 -10 -12.7 -20.1 0 -14 6.3 -22.3 23.3 -30.5 5.6 -2.7 10.8 -4.9 11.5 -4.9 0.8 0 1.2 -1.8 1.2 -5.7 -0.1 -12.9 -2.8 -18.3 -9.2 -18.3 -6.9 0 -10.8 4.7 -10.8 13.1 l0 3.9 -7.8 0 -7.8 0 0.7 -5.9 c1.8 -15.4 10 -22.3 26.2 -22.3 15.5 0.1 21.8 6.1 23.7 22.5 0.5 4.5 1.1 21.8 1.2 38.5 l0.3 30.3 -7 -0.3 -7 -0.3 -1 -7 -1.1 -7 -1.8 3.5 c-4.9 9.4 -13.5 13.5 -21.9 10.5z m15.6 -13.6 c1.2 -0.6 3.4 -2.3 5 -3.7 2.7 -2.6 2.7 -2.7 2.7 -15.9 0 -7.3 -0.3 -13.3 -0.6 -13.3 -1.5 0 -12.1 7.1 -14.5 9.7 -3.9 4.2 -4.9 6.6 -4.9 12.3 0 9.9 5.2 14.5 12.3 10.9z"/>
  <path d="M989 398.5 l0 -45.5 8 0 8 0 0 45.5 0 45.5 -8 0 -8 0 0 -45.5z"/>
  <path d="M1028.7 441.8 c-2.4 -1.4 -4.5 -3.8 -6 -6.8 -2.1 -4.3 -2.2 -5.7 -2.5 -37.7 l-0.4 -33.3 -4.4 0 -4.4 0 0 -5 0 -5 4.5 0 4.5 0 0 -13.5 0 -13.5 8 0 7.9 0 0.3 13.3 0.3 13.2 7.3 0.3 7.2 0.3 0 4.9 0 5 -7.5 0 -7.5 0 0 30.5 c0 34.9 0.3 36.8 6.3 37.9 2 0.4 4.7 0.4 6.1 0 2.6 -0.6 2.6 -0.6 2.6 5.5 l0 6.1 -9.2 0 c-7.7 0 -9.9 -0.4 -13.1 -2.2z"/>
  <path d="M1116 380.5 l0 -63.5 8 0 8 0 0 63.5 0 63.5 -8 0 -8 0 0 -63.5z"/>
  <path d="M989 331.5 l0 -8.5 8 0 8 0 0 8.5 0 8.5 -8 0 -8 0 0 -8.5z"/>
  <path d="M1225.2 310.9 c-13.4 -1.3 -20.6 -7.1 -20.4 -16.6 0 -5.5 3.5 -11.1 8.8 -14.4 3.4 -2.1 3.6 -2.4 1.9 -3.3 -8.4 -4.9 -8.5 -13.6 -0.2 -21.5 l3.6 -3.4 -3.4 -4 c-4.8 -5.6 -6.7 -12 -6.7 -23.1 -0.1 -21.3 7.8 -31.5 24.5 -31.6 8.2 0 12.5 1.6 16 6.1 l2.6 3.4 2.8 -2.6 c4.1 -3.8 8.9 -6.9 10.6 -6.9 0.8 0 2 1.2 2.5 2.8 0.5 1.5 1.3 3.4 1.6 4.3 0.6 1.3 -0.9 2.2 -6.9 4.4 -6.8 2.4 -7.6 3 -7.1 4.9 4.3 15.3 2.3 31.6 -4.8 39.4 -4.1 4.6 -9.2 6.4 -18.2 6.3 -9.1 0 -10.4 0.8 -10.4 6.2 0 3.8 1.9 4.6 13.1 5.7 13.9 1.4 15.7 1.8 20.6 4.6 5.5 3.2 8.3 8.9 8.3 17.2 0 7.7 -1.6 11.8 -6.4 15.9 -6 5.4 -17.5 7.5 -32.4 6.2z m23.5 -14.5 c2.4 -1.8 2.8 -2.8 2.8 -6.9 0 -6.9 -2.2 -8.2 -15.8 -9.6 -10.6 -1.1 -10.9 -1.1 -13.2 1.1 -3.1 2.9 -4.7 7 -4.3 11.1 0.5 5.4 4.8 7.1 17.5 6.7 8.5 -0.3 10.7 -0.7 13 -2.4z m-11.3 -52.4 c5.1 -1.9 6.6 -6.2 6.6 -19.3 0 -12.8 -1.1 -17.3 -5.1 -20.1 -4.7 -3.2 -12.4 -1.1 -14.8 4.1 -1.9 4 -2.6 20 -1.2 26.1 2 8.2 7.7 11.8 14.5 9.2z"/>
  <path d="M628 284.3 c-4.2 -1.3 -6.4 -3.1 -8.3 -6.8 -2.1 -3.9 -2.2 -5.2 -2.5 -44.2 l-0.3 -40.3 8 0 8 0 0.3 37.4 c0.3 35.1 0.4 37.5 2.2 39.5 2.7 3 8.2 2.8 13.4 -0.6 l4.2 -2.7 0 -36.8 0 -36.8 8 0 8 0 0 45.5 0 45.5 -8 0 -8 0 0 -4.5 c0 -2.5 -0.3 -4.5 -0.7 -4.5 -0.3 0 -2 1.1 -3.7 2.4 -6.7 5 -16.3 8.3 -20.6 6.9z"/>
  <path d="M1100.7 283.5 c-8.1 -2.8 -12.6 -10 -12.7 -20.1 0 -14 6.3 -22.3 23.3 -30.5 5.6 -2.7 10.8 -4.9 11.5 -4.9 0.8 0 1.2 -1.8 1.2 -5.7 -0.1 -12.9 -2.8 -18.3 -9.2 -18.3 -6.9 0 -10.8 4.7 -10.8 13.1 l0 3.9 -7.8 0 -7.8 0 0.7 -5.9 c1.8 -15.4 10 -22.3 26.2 -22.3 15.5 0.1 21.8 6.1 23.7 22.5 0.5 4.5 1.1 21.8 1.2 38.5 l0.3 30.3 -7 -0.3 -7 -0.3 -1 -7 -1.1 -7 -1.8 3.5 c-4.9 9.4 -13.5 13.5 -21.9 10.5z m15.6 -13.6 c1.2 -0.6 3.4 -2.3 5 -3.7 2.7 -2.6 2.7 -2.7 2.7 -15.9 0 -7.3 -0.3 -13.3 -0.6 -13.3 -1.5 0 -12.1 7.1 -14.5 9.7 -3.9 4.2 -4.9 6.6 -4.9 12.3 0 9.9 5.2 14.5 12.3 10.9z"/>
  <path d="M1159 284.3 c-4.2 -1.3 -6.4 -3.1 -8.3 -6.8 -2.1 -3.9 -2.2 -5.2 -2.5 -44.2 l-0.3 -40.3 8 0 8 0 0.3 37.4 c0.3 35.1 0.4 37.5 2.2 39.5 2.7 3 8.2 2.8 13.4 -0.6 l4.2 -2.7 0 -36.8 0 -36.8 8 0 8 0 0 45.5 0 45.5 -8 0 -8 0 0 -4.5 c0 -2.5 -0.3 -4.5 -0.7 -4.5 -0.3 0 -2 1.1 -3.7 2.4 -6.7 5 -16.3 8.3 -20.6 6.9z"/>
  <path d="M544 220.5 l0 -63.8 19.3 0.6 c21.5 0.6 27 1.8 33.9 7 9.6 7.4 11.8 17.4 11.8 54.7 -0.1 37.5 -1.8 46.8 -10.5 55.5 -7.4 7.5 -11.6 8.6 -35.2 9.2 l-19.3 0.6 0 -63.8z m39.2 48.9 c2 -1.2 4.3 -3.8 5.8 -6.9 l2.5 -5 0 -37 c0 -35.8 -0.1 -37.2 -2.2 -41.7 -3.2 -6.9 -5.8 -8.2 -18 -8.6 l-10.3 -0.4 0 51.2 0 51.3 9.4 -0.5 c6.7 -0.4 10.4 -1.1 12.8 -2.4z"/>
  <path d="M688.4 282.1 c-5.6 -2.5 -10.8 -9 -12.7 -15.8 -0.9 -3.1 -1.5 -5.8 -1.3 -6 0.2 -0.3 3.2 -1.3 6.6 -2.3 4.4 -1.3 6.2 -1.5 6.4 -0.7 0.2 0.7 0.9 3.1 1.5 5.4 1.8 6.7 4.8 9.5 10.8 10 4.6 0.5 5.4 0.2 7.8 -2.1 2.5 -2.5 2.7 -3.3 2.3 -8.8 -0.5 -6.7 -0.5 -6.7 -20.5 -24.5 -9.9 -8.8 -12.5 -13.7 -12.5 -22.8 0 -14.5 8.3 -22.1 23.5 -21.3 5.9 0.3 8.2 0.8 11.4 3 4.2 2.7 8.5 10 9.8 16.3 0.5 2.9 0.3 3.1 -4.4 4.8 -5.8 2 -6.1 2.1 -6.1 0.5 0 -3.3 -2.4 -9.3 -4.5 -11.4 -3.4 -3.4 -9.7 -3.3 -13 0.1 -2 1.9 -2.5 3.4 -2.5 7.2 l0 4.7 14.3 14.1 c8.5 8.3 15.2 15.6 16.3 18 1.3 2.8 1.9 6.2 1.9 11.5 0 10 -3.1 15.6 -10.7 19.4 -6.6 3.3 -18 3.6 -24.4 0.7z"/>
  <path d="M742.7 281.8 c-2.4 -1.4 -4.5 -3.8 -6 -6.8 -2.1 -4.3 -2.2 -5.7 -2.5 -37.7 l-0.4 -33.3 -4.4 0 -4.4 0 0 -5 0 -5 4.5 0 4.5 0 0 -13.5 0 -13.5 8 0 7.9 0 0.3 13.3 0.3 13.2 7.3 0.3 7.2 0.3 0 4.9 0 5 -7.5 0 -7.5 0 0 30.5 c0 34.9 0.3 36.8 6.3 37.9 2 0.4 4.7 0.4 6.1 0 2.6 -0.6 2.6 -0.6 2.6 5.5 l0 6.1 -9.2 0 c-7.7 0 -9.9 -0.4 -13.1 -2.2z"/>
  <path d="M771 238.5 l0 -45.5 8 0 8 0 0 45.5 0 45.5 -8 0 -8 0 0 -45.5z"/>
  <path d="M798 238.5 l0 -45.5 8 0 8 0 0 4.5 c0 2.5 0.2 4.5 0.5 4.5 0.3 0 2.5 -1.5 4.9 -3.4 5.2 -4 9.8 -5.7 16 -5.9 5.7 -0.2 9.3 1.8 11.9 6.8 2.1 3.9 2.2 5.2 2.5 44.3 l0.3 40.2 -8 0 -8 0 -0.3 -37.4 c-0.3 -35.1 -0.4 -37.5 -2.2 -39.5 -2.5 -2.8 -8 -2.7 -13.1 0.2 l-4 2.3 -0.3 37.2 -0.2 37.2 -8 0 -8 0 0 -45.5z"/>
  <path d="M888 220.5 l0 -63.8 19.3 0.6 c21.5 0.6 27 1.8 33.9 7 9.6 7.4 11.8 17.4 11.8 54.7 -0.1 37.5 -1.8 46.8 -10.5 55.5 -7.4 7.5 -11.6 8.6 -35.2 9.2 l-19.3 0.6 0 -63.8z m39.2 48.9 c2 -1.2 4.3 -3.8 5.8 -6.9 l2.5 -5 0 -37 c0 -35.8 -0.1 -37.2 -2.2 -41.7 -3.2 -6.9 -5.8 -8.2 -18 -8.6 l-10.3 -0.4 0 51.2 0 51.3 9.4 -0.5 c6.7 -0.4 10.4 -1.1 12.8 -2.4z"/>
  <path d="M975.8 283 c-5.1 -1.5 -9 -5.2 -11.6 -10.9 -5.6 -12.3 -5.5 -55.9 0.3 -67.6 4.2 -8.6 9.8 -11.5 22.4 -11.5 12 0.1 18.4 3.9 21.6 13 1.4 4 3.4 21.1 3.5 29.8 l0 3.2 -18 0 -18 0 0 10.3 c0.1 13.5 1.1 18.6 4.5 21.4 2.8 2.5 7.4 3 10.7 1.2 2.8 -1.5 4.8 -7 4.8 -13.4 l0 -5.5 7.5 0 7.5 0 0 6 c0 11.2 -5 20 -13.2 23.4 -4 1.7 -17.2 2.1 -22 0.6z m20.2 -60.7 c0 -13.4 -2.6 -18.3 -9.6 -18.3 -7.3 0 -9.1 2.9 -10 16.4 l-0.7 9.6 10.2 0 10.1 0 0 -7.7z"/>
  <path d="M1043.6 282.3 c-0.9 -3.1 -27.6 -123.1 -27.6 -124.3 0 -0.7 2.5 -1 7.7 -0.8 l7.6 0.3 10.1 46.9 c6.5 30.3 10.3 46.2 10.8 45 0.7 -1.8 18.8 -90 18.8 -91.6 0 -0.5 3.4 -0.8 7.5 -0.8 4.1 0 7.5 0.3 7.5 0.8 0.1 0.4 -6.1 28.9 -13.7 63.4 l-13.8 62.8 -7.2 0 c-6 0 -7.3 -0.3 -7.7 -1.7z"/>
  <path d="M1271 220.5 l0 -63.5 8 0 8 0 0 23 c0 12.7 0.3 23 0.6 23 0.4 0 2.2 -1.4 4.2 -3.1 8.1 -7.2 20.8 -9.5 25.9 -4.8 5.2 4.8 5.3 5.7 5.3 48.9 l0 40 -8 0 -8 0 0 -37.3 c0 -41.8 0 -41.7 -6.6 -41.7 -3.6 0 -8.5 2 -11.6 4.8 -1.7 1.4 -1.8 4.5 -1.8 37.9 l0 36.3 -8 0 -8 0 0 -63.5z"/>
  <path d="M1333 238.5 l0 -45.5 8 0 8 0 0 4.5 c0 2.5 0.2 4.5 0.5 4.5 0.3 0 2.5 -1.5 4.9 -3.4 5.2 -4 9.8 -5.7 16 -5.9 5.7 -0.2 9.3 1.8 11.9 6.8 2.1 3.9 2.2 5.2 2.5 44.3 l0.3 40.2 -8 0 -8 0 -0.3 -37.4 c-0.3 -35.1 -0.4 -37.5 -2.2 -39.5 -2.5 -2.8 -8 -2.7 -13.1 0.2 l-4 2.3 -0.3 37.2 -0.2 37.2 -8 0 -8 0 0 -45.5z"/>
  <path d="M771 171.5 l0 -8.5 8 0 8 0 0 8.5 0 8.5 -8 0 -8 0 0 -8.5z"/>
 </g>
 <g fill="#00a8ff">
  <path d="M303.6 488.9 c-31.5 -17.1 -55.4 -34.5 -77.1 -56.4 -20.2 -20.2 -33.9 -39.5 -45.9 -64.5 -17.5 -36.6 -26.8 -80.3 -27.8 -131.9 l-0.3 -15.3 13 -4.2 c60 -19.6 126.5 -65.6 147.7 -102.4 l3.3 -5.7 0.3 161.9 c0.1 89.1 0 162.1 -0.2 162.4 -1.2 1.1 -28.6 -18.1 -34.8 -24.3 l-2.8 -2.8 0 -100.8 c0 -88.3 -0.2 -100.9 -1.5 -100.9 -0.8 0 -6.2 3.2 -12.1 7 -16.3 10.7 -36.1 21.6 -55.1 30.2 -9.4 4.3 -17.6 7.8 -18.2 7.8 -1.5 0 -1.4 5.6 0.4 22.3 5.1 46.5 19 84.6 42 115.2 16.4 21.7 43.4 45.2 72.3 62.6 l10.2 6.2 -0.2 19.5 c-0.2 12 -0.7 19.6 -1.3 19.8 -0.5 0.1 -5.9 -2.5 -11.9 -5.7z"/>
 </g>
</svg>